<?xml version="1.0" encoding="utf-8"?>
<!-- Generator: Adobe Illustrator 22.1.0, SVG Export Plug-In . SVG Version: 6.00 Build 0)  -->
<svg version="1.1" id="Layer_1" xmlns="http://www.w3.org/2000/svg" xmlns:xlink="http://www.w3.org/1999/xlink" x="0px" y="0px"
	 viewBox="0 0 556.5 572.7" style="enable-background:new 0 0 556.5 572.7;" xml:space="preserve">
<style type="text/css">
	.st0{display:none;fill:#204056;}
	.st1{fill:none;stroke:#FFFFFF;stroke-width:4;stroke-linecap:round;}
	.st2{fill:#FFFFFF;}
	.st3{fill:#641FE1;}
</style>
<polygon id="Page-1" class="st0" points="0,571.7 556.8,571.7 556.8,-1 0,-1 "/>
<path id="Oval-2" class="st1" d="M224,106.6c-35.7,11.8-66.6,34-89.4,62.9C109.2,201.8,94,242.6,94,286.9c0,4.8,0.2,9.6,0.5,14.3
	c0.5,6.7,1.3,13.2,2.5,19.7 M125.7,392c34,51.1,92.2,84.8,158.2,84.8c59.4,0,112.4-27.3,147.2-69.9 M473,304.5
	c0.5-5.8,0.8-11.7,0.8-17.6c0-84-54.5-155.2-130.1-180.3"/>
<g>
	<line class="st1" x1="221.7" y1="116.7" x2="226.3" y2="105.9"/>
	<line class="st1" x1="215.5" y1="101.3" x2="226.3" y2="105.9"/>
</g>
<g>
	<line class="st1" x1="134.9" y1="391.2" x2="123.6" y2="388.1"/>
	<line class="st1" x1="120.6" y1="399.4" x2="123.6" y2="388.1"/>
</g>
<g>
	<line class="st1" x1="464.9" y1="300.6" x2="472.3" y2="309.6"/>
	<line class="st1" x1="481.3" y1="302.1" x2="472.3" y2="309.6"/>
</g>
<g>
	<path class="st2" d="M267.6,94.8c-2.1,0-3.7-0.7-5-2s-1.8-3.1-1.8-5.4c0-2.2,0.6-4,1.9-5.3s3-2,5-2c1.7,0,3.1,0.4,4.2,1.2l-0.8,2
		c-1.1-0.7-2.2-1-3.4-1c-1.3,0-2.4,0.5-3.1,1.4s-1.1,2.2-1.1,3.8c0,1.7,0.4,2.9,1.1,3.8s1.8,1.4,3.2,1.4c1.2,0,2.4-0.3,3.6-0.9
		l0.4,2.1C270.6,94.5,269.3,94.8,267.6,94.8z"/>
	<path class="st2" d="M278.4,94.8c-1.6,0-2.8-0.5-3.8-1.5s-1.4-2.4-1.4-4.1c0-1.7,0.5-3.1,1.4-4.1s2.2-1.5,3.9-1.5
		c1.6,0,2.9,0.5,3.8,1.5s1.4,2.4,1.4,4.1c0,1.7-0.5,3.1-1.4,4.1S280.1,94.8,278.4,94.8z M278.5,92.9c0.9,0,1.5-0.3,2-0.9
		s0.7-1.5,0.7-2.7c0-1.2-0.2-2.1-0.7-2.7s-1.1-0.9-2-0.9c-0.9,0-1.5,0.3-2,0.9s-0.7,1.5-0.7,2.7c0,1.2,0.2,2.1,0.7,2.7
		S277.6,92.9,278.5,92.9z"/>
	<path class="st2" d="M289.8,94.8c-1.4,0-2.5-0.5-3.3-1.5s-1.2-2.4-1.2-4.1c0-1.7,0.4-3,1.2-4s1.9-1.5,3.3-1.5
		c1.5,0,2.6,0.5,3.2,1.6c-0.1-0.6-0.1-1.3-0.1-1.8v-3.5l2.6-0.2v14.9h-2.2l-0.3-1.5c-0.1,0.2-0.2,0.3-0.3,0.5s-0.2,0.3-0.4,0.4
		s-0.4,0.3-0.6,0.4s-0.5,0.2-0.8,0.3S290.2,94.8,289.8,94.8z M290.4,92.9c1.7,0,2.6-1.2,2.6-3.5c0-1.3-0.2-2.3-0.7-2.9
		s-1.1-0.9-2-0.9c-0.8,0-1.4,0.3-1.8,0.9s-0.7,1.5-0.7,2.7c0,1.2,0.2,2.1,0.7,2.7S289.6,92.9,290.4,92.9z"/>
	<path class="st2" d="M303,94.8c-1.7,0-3.1-0.5-4-1.5s-1.4-2.4-1.4-4.1c0-1.7,0.5-3.1,1.4-4.1s2.1-1.5,3.7-1.5
		c1.5,0,2.6,0.5,3.4,1.4s1.2,2.2,1.2,3.7c0,0.1,0,0.3,0,0.5s0,0.4,0,0.5h-7.1c0,1,0.3,1.8,0.8,2.3s1.2,0.8,2.2,0.8
		c1.2,0,2.3-0.3,3.4-0.9l0.4,1.8C305.8,94.5,304.5,94.8,303,94.8z M300.2,88.2h4.7c0-0.9-0.2-1.5-0.6-2s-0.9-0.7-1.7-0.7
		c-0.7,0-1.2,0.2-1.7,0.7S300.2,87.3,300.2,88.2z"/>
	<path class="st2" d="M251.5,121.3c-1.8-2.5-2.8-5.4-2.8-8.5c0-3.2,0.9-6.1,2.8-8.7h2.3c-0.7,0.9-1.3,2.2-1.8,3.8s-0.8,3.2-0.8,4.8
		c0,1.6,0.3,3.2,0.8,4.8s1.2,2.9,1.8,3.8H251.5z"/>
	<path class="st2" d="M259.4,118.8c-1.4,0-2.5-0.5-3.3-1.5s-1.2-2.4-1.2-4.1c0-1.7,0.4-3,1.2-4s1.9-1.5,3.3-1.5
		c1.5,0,2.6,0.5,3.2,1.6c-0.1-0.6-0.1-1.3-0.1-1.8v-3.5l2.6-0.2v14.9h-2.2l-0.3-1.5c-0.1,0.2-0.2,0.3-0.3,0.5s-0.2,0.3-0.4,0.4
		s-0.4,0.3-0.6,0.4s-0.5,0.2-0.8,0.3S259.8,118.8,259.4,118.8z M260,116.9c1.7,0,2.6-1.2,2.6-3.5c0-1.3-0.2-2.3-0.7-2.9
		s-1.1-0.9-2-0.9c-0.8,0-1.4,0.3-1.8,0.9s-0.7,1.5-0.7,2.7c0,1.2,0.2,2.1,0.7,2.7S259.3,116.9,260,116.9z"/>
	<path class="st2" d="M272.7,118.8c-1.7,0-3.1-0.5-4-1.5s-1.4-2.4-1.4-4.1c0-1.7,0.5-3.1,1.4-4.1s2.1-1.5,3.7-1.5
		c1.5,0,2.6,0.5,3.4,1.4s1.2,2.2,1.2,3.7c0,0.1,0,0.3,0,0.5s0,0.4,0,0.5h-7.1c0,1,0.3,1.8,0.8,2.3s1.2,0.8,2.2,0.8
		c1.2,0,2.3-0.3,3.4-0.9l0.4,1.8C275.5,118.5,274.2,118.8,272.7,118.8z M269.9,112.2h4.7c0-0.9-0.2-1.5-0.6-2s-0.9-0.7-1.7-0.7
		c-0.7,0-1.2,0.2-1.7,0.7S269.9,111.3,269.9,112.2z"/>
	<path class="st2" d="M284.8,118.8c-0.7,0-1.4-0.2-2-0.5s-1-0.7-1.3-1.1l-0.3,1.4H279v-14.7l2.6-0.2v3.3c0,0.6,0,1.4-0.1,2.2
		c0.8-1.1,2-1.7,3.3-1.7c1.4,0,2.4,0.5,3.2,1.5s1.2,2.3,1.2,4c0,1.7-0.4,3.1-1.2,4.1S286.1,118.8,284.8,118.8z M284.2,116.9
		c0.8,0,1.4-0.3,1.8-1s0.7-1.6,0.7-2.7c0-1.2-0.2-2.1-0.7-2.7s-1-0.9-1.8-0.9c-1.7,0-2.6,1.2-2.6,3.5c0,1.3,0.2,2.3,0.7,2.9
		S283.3,116.9,284.2,116.9z"/>
	<path class="st2" d="M299.1,117.8c-0.9,0.7-2,1-3.4,1s-2.5-0.3-3.4-1s-1.3-1.7-1.3-3.1v-6.8h2.6v6.7c0,0.8,0.2,1.4,0.5,1.7
		s0.9,0.5,1.6,0.5c0.7,0,1.2-0.2,1.6-0.5s0.5-0.9,0.5-1.7v-6.7h2.6v6.8C300.3,116.1,299.9,117.1,299.1,117.8z"/>
	<path class="st2" d="M304.8,123.4l-0.1-2.1h1.3c1.5,0,2.6-0.2,3.2-0.6s0.9-1.1,0.9-2.2c0-0.4,0-0.9-0.1-1.4
		c-0.2,0.2-0.3,0.4-0.5,0.6s-0.3,0.3-0.6,0.5s-0.5,0.3-0.8,0.3s-0.7,0.1-1.1,0.1c-1.4,0-2.6-0.5-3.5-1.5s-1.4-2.3-1.4-4
		c0-0.9,0.1-1.6,0.4-2.3s0.6-1.3,1-1.7s0.9-0.8,1.5-1s1.2-0.4,1.8-0.4c1.4,0,2.5,0.5,3.2,1.6l0.2-1.3h2.3v10c0,0.5,0,1-0.1,1.4
		s-0.1,0.8-0.3,1.2s-0.3,0.7-0.5,1s-0.5,0.6-0.8,0.8s-0.7,0.4-1.1,0.6s-0.9,0.3-1.5,0.4s-1.2,0.1-1.9,0.1H304.8z M307.4,116.8
		c1.8,0,2.7-1.2,2.7-3.5v-0.4c0-1.1-0.2-1.9-0.7-2.5s-1.1-0.9-1.9-0.9c-0.9,0-1.6,0.3-2.1,1s-0.7,1.5-0.7,2.6c0,1,0.2,1.9,0.7,2.6
		S306.5,116.8,307.4,116.8z"/>
	<path class="st2" d="M314.1,121.3c0.4-0.6,0.8-1.3,1.2-2.1s0.7-1.9,1-3s0.4-2.3,0.4-3.4c0-1.6-0.3-3.2-0.8-4.8s-1.2-2.9-1.8-3.9
		h2.3c1.8,2.6,2.8,5.5,2.8,8.7c0,3.2-0.9,6-2.8,8.5H314.1z"/>
</g>
<rect x="404.3" y="334.6" class="st3" width="100.5" height="41.1"/>
<g>
	<path class="st2" d="M437.7,361.9c-1.7,0-3.3-0.4-4.6-1.2l0.6-2.1c0.6,0.3,1.3,0.6,2,0.8c0.7,0.2,1.4,0.3,2.1,0.3
		c0.8,0,1.5-0.2,1.9-0.5s0.6-0.9,0.6-1.6c0-0.9-0.6-1.5-1.8-1.9c-0.1,0-0.3-0.1-0.7-0.2c-0.4-0.1-0.8-0.2-1.1-0.3s-0.6-0.2-0.7-0.2
		c-1.9-0.7-2.9-1.9-2.9-3.8c0-1.3,0.5-2.3,1.4-3s2.1-1.1,3.7-1.1c1.7,0,3.2,0.4,4.5,1.1l-0.8,1.9c-1.3-0.6-2.5-0.9-3.6-0.9
		c-0.8,0-1.4,0.1-1.8,0.4c-0.4,0.3-0.6,0.7-0.6,1.4c0,0.8,0.4,1.3,1.2,1.6c0.2,0.1,0.5,0.2,1.2,0.4s1,0.3,1.2,0.4
		c1.3,0.4,2.2,1,2.8,1.6c0.6,0.6,0.8,1.5,0.8,2.7c0,1.4-0.5,2.4-1.4,3.1S439.3,361.9,437.7,361.9z"/>
	<path class="st2" d="M447.9,361.9c-1,0-1.8-0.3-2.4-0.8c-0.6-0.6-0.9-1.3-0.9-2.4c0-1.1,0.4-1.9,1.1-2.5s1.8-0.9,3.3-1
		c0.2,0,0.4-0.1,0.7-0.1c0.2,0,0.5-0.1,0.8-0.1c0.3,0,0.5,0,0.7-0.1v-0.6c0-0.7-0.1-1.1-0.4-1.4c-0.3-0.3-0.8-0.4-1.4-0.4
		c-0.9,0-2,0.2-3.2,0.7c0,0-0.1-0.3-0.3-0.9c-0.2-0.6-0.3-0.9-0.3-0.9c1.3-0.5,2.6-0.8,4.1-0.8c1.4,0,2.5,0.3,3.2,0.9
		c0.7,0.6,1,1.6,1,3.1v7h-1.9c0,0-0.1-0.2-0.2-0.7s-0.2-0.6-0.2-0.7c-0.5,0.5-1.1,0.9-1.6,1.1S448.6,361.9,447.9,361.9z
		 M448.6,360.1c0.6,0,1.1-0.1,1.5-0.4s0.8-0.6,0.9-1v-2.1c0,0-0.2,0-0.5,0c-0.3,0-0.5,0-0.5,0c-1,0.1-1.8,0.3-2.3,0.6
		c-0.5,0.3-0.7,0.8-0.7,1.4c0,0.5,0.1,0.8,0.4,1S448.1,360.1,448.6,360.1z"/>
	<path class="st2" d="M459.1,361.7l-4.3-10.7h2.7c0.1,0.3,0.4,1.2,1,2.7c0.6,1.5,0.9,2.6,1.1,3.1c0.4,1.1,0.6,1.9,0.8,2.5
		c0,0,0.1-0.2,0.2-0.6c0.1-0.4,0.2-0.8,0.3-1.2c0.1-0.4,0.2-0.6,0.2-0.7c0,0,0.3-0.9,0.9-2.7c0.6-1.8,0.9-2.8,1-3.1h2.7l-4.1,10.7
		H459.1z"/>
	<path class="st2" d="M472,361.9c-1.7,0-3.1-0.5-4-1.5c-1-1-1.4-2.4-1.4-4.1c0-1.7,0.5-3.1,1.4-4.1c0.9-1,2.1-1.5,3.7-1.5
		c1.5,0,2.6,0.5,3.4,1.4c0.8,0.9,1.2,2.2,1.2,3.7c0,0.1,0,0.3,0,0.5c0,0.2,0,0.4,0,0.5h-7.1c0,1,0.3,1.8,0.8,2.3
		c0.5,0.5,1.2,0.8,2.2,0.8c1.2,0,2.3-0.3,3.4-0.9l0.4,1.8C474.7,361.6,473.5,361.9,472,361.9z M469.1,355.2h4.7c0-0.9-0.2-1.5-0.6-2
		s-0.9-0.7-1.7-0.7c-0.7,0-1.2,0.2-1.7,0.7C469.5,353.7,469.2,354.3,469.1,355.2z"/>
</g>
<g>
	<path class="st2" d="M60.9,345.5l-0.1,2.3c0,0.3-0.1,0.5-0.2,0.6c-0.1,0.1-0.3,0.2-0.6,0.2c-0.2,0-0.4-0.1-0.5-0.2
		c-0.1-0.1-0.1-0.3-0.1-0.6v-0.2l0.1-2.2c-0.3,0-0.5-0.1-0.8-0.2s-0.5-0.2-0.8-0.4c-0.1,0.2-0.2,0.3-0.3,0.3
		c-0.1,0.1-0.2,0.1-0.4,0.1c-0.3,0-0.5-0.1-0.6-0.3c-0.1-0.2-0.2-0.4-0.2-0.7v-1.4c0-0.2,0.1-0.4,0.2-0.6c0.1-0.1,0.3-0.2,0.6-0.2
		c0.4,0,0.7,0.3,0.8,0.8c0,0.2,0.1,0.3,0.1,0.3c0.1,0.2,0.5,0.5,1,0.7c0.5,0.2,1,0.3,1.6,0.3c0.6,0,1.1-0.1,1.5-0.4
		c0.4-0.3,0.6-0.7,0.6-1.1c0-0.4-0.1-0.7-0.4-1c-0.3-0.3-0.9-0.5-1.8-0.9l-1.7-0.6c-0.7-0.2-1.2-0.6-1.6-1.1s-0.6-1.1-0.6-1.7
		c0-0.8,0.3-1.5,0.9-2c0.6-0.5,1.4-0.8,2.4-0.9l0-0.7c0-0.3,0.1-0.5,0.2-0.6c0.1-0.1,0.3-0.2,0.5-0.2c0.2,0,0.4,0.1,0.5,0.2
		c0.1,0.1,0.2,0.3,0.2,0.5v0.1l-0.1,0.8c0.2,0.1,0.5,0.1,0.7,0.2c0.2,0.1,0.5,0.2,0.7,0.3c0.1-0.1,0.2-0.2,0.3-0.3
		c0.1-0.1,0.2-0.1,0.3-0.1c0.2,0,0.4,0.1,0.5,0.2c0.1,0.1,0.1,0.3,0.1,0.6v1.2c0,0.2-0.1,0.4-0.2,0.6s-0.3,0.2-0.5,0.2
		c-0.3,0-0.6-0.2-0.8-0.6c0-0.1-0.1-0.2-0.1-0.2c-0.1-0.3-0.4-0.5-0.7-0.6c-0.4-0.1-0.8-0.2-1.2-0.2c-0.7,0-1.2,0.1-1.6,0.4
		c-0.4,0.3-0.6,0.7-0.6,1.1c0,0.4,0.1,0.7,0.4,1c0.2,0.3,0.6,0.5,1.1,0.6l1.9,0.6c1,0.3,1.6,0.7,2.1,1.2s0.7,1.1,0.7,1.9
		c0,0.9-0.3,1.5-1,2.1C62.9,345.1,62,345.4,60.9,345.5z"/>
	<path class="st2" d="M88.5,345.6c0,0.9,0,1.6-0.1,1.9s-0.2,0.7-0.5,1c-0.4,0.5-0.9,0.8-1.5,1.1c-0.7,0.3-1.4,0.4-2.3,0.4
		c-0.7,0-1.3-0.1-1.6-0.2c-0.3-0.1-0.5-0.4-0.5-0.7c0-0.2,0.1-0.4,0.2-0.5c0.2-0.2,0.4-0.2,0.6-0.2c0.2,0,0.4,0,0.8,0.1
		s0.6,0.1,0.8,0.1c1,0,1.6-0.2,2.1-0.7c0.4-0.4,0.6-1.2,0.6-2.3v-1.2c-0.4,0.5-0.8,0.8-1.3,1s-1,0.3-1.7,0.3c-1.2,0-2.2-0.4-3-1.2
		s-1.2-1.8-1.2-3.1c0-1.2,0.4-2.3,1.2-3.1c0.8-0.8,1.8-1.2,3-1.2c0.5,0,1,0.1,1.5,0.3s1,0.5,1.5,0.8v-0.7c0-0.1,0-0.2,0.1-0.3
		c0.1-0.1,0.2-0.1,0.4-0.1H89c0.3,0,0.5,0.1,0.6,0.2c0.1,0.1,0.2,0.3,0.2,0.5c0,0.3-0.1,0.4-0.2,0.5c-0.2,0.1-0.5,0.2-0.9,0.2h-0.2
		V345.6z M84.2,338.6c-0.9,0-1.5,0.3-2.1,0.8s-0.8,1.2-0.8,2.1c0,0.8,0.3,1.5,0.8,2c0.5,0.5,1.2,0.8,2.1,0.8c0.8,0,1.5-0.3,2.1-0.8
		c0.5-0.5,0.8-1.2,0.8-2c0-0.8-0.3-1.5-0.8-2C85.8,338.8,85.1,338.6,84.2,338.6z"/>
	<path class="st2" d="M97.2,339.3h3.5c0.2,0,0.4,0.1,0.6,0.2c0.1,0.1,0.2,0.3,0.2,0.5c0,0.2-0.1,0.4-0.2,0.5
		c-0.1,0.1-0.3,0.2-0.6,0.2h-3.5v3.7c0,0.2-0.1,0.4-0.2,0.6c-0.1,0.1-0.3,0.2-0.5,0.2c-0.2,0-0.4-0.1-0.5-0.2s-0.2-0.3-0.2-0.5v-3.7
		h-3.5c-0.2,0-0.4-0.1-0.6-0.2c-0.1-0.1-0.2-0.3-0.2-0.5c0-0.2,0.1-0.4,0.2-0.5c0.2-0.1,0.3-0.2,0.5-0.2h3.5v-3.7
		c0-0.2,0.1-0.4,0.2-0.6c0.1-0.1,0.3-0.2,0.5-0.2c0.2,0,0.4,0.1,0.5,0.2c0.1,0.1,0.2,0.3,0.2,0.6V339.3z"/>
	<path class="st2" d="M109.2,339.3h3.5c0.2,0,0.4,0.1,0.6,0.2c0.1,0.1,0.2,0.3,0.2,0.5c0,0.2-0.1,0.4-0.2,0.5
		c-0.1,0.1-0.3,0.2-0.6,0.2h-3.5v3.7c0,0.2-0.1,0.4-0.2,0.6c-0.1,0.1-0.3,0.2-0.5,0.2c-0.2,0-0.4-0.1-0.5-0.2s-0.2-0.3-0.2-0.5v-3.7
		h-3.5c-0.2,0-0.4-0.1-0.6-0.2c-0.1-0.1-0.2-0.3-0.2-0.5c0-0.2,0.1-0.4,0.2-0.5c0.2-0.1,0.3-0.2,0.5-0.2h3.5v-3.7
		c0-0.2,0.1-0.4,0.2-0.6c0.1-0.1,0.3-0.2,0.5-0.2c0.2,0,0.4,0.1,0.5,0.2c0.1,0.1,0.2,0.3,0.2,0.6V339.3z"/>
	<path class="st2" d="M128.9,344.8v-10h-0.2c-0.4,0-0.7-0.1-0.9-0.2c-0.2-0.1-0.2-0.3-0.2-0.5c0-0.2,0.1-0.4,0.2-0.5
		s0.3-0.2,0.6-0.2h1.5c0.2,0,0.3,0,0.4,0.1c0.1,0.1,0.1,0.2,0.1,0.3v4.4c0.5-0.4,0.9-0.8,1.4-1c0.5-0.2,0.9-0.3,1.5-0.3
		c1,0,1.8,0.3,2.3,0.9c0.6,0.6,0.8,1.5,0.8,2.5v4.4h0.5c0.3,0,0.6,0.1,0.7,0.2c0.1,0.1,0.2,0.3,0.2,0.5s-0.1,0.4-0.2,0.5
		c-0.1,0.1-0.3,0.2-0.6,0.2h-2.6c-0.3,0-0.5,0-0.6-0.2c-0.1-0.1-0.2-0.3-0.2-0.6c0-0.3,0.1-0.4,0.2-0.5c0.1-0.1,0.4-0.1,0.8-0.1h0.3
		v-4.1c0-0.8-0.2-1.3-0.5-1.7s-0.8-0.6-1.5-0.6c-0.7,0-1.3,0.2-1.8,0.7c-0.5,0.4-0.8,1-0.8,1.7v4.1h0.3c0.4,0,0.7,0,0.8,0.1
		s0.2,0.3,0.2,0.5c0,0.3-0.1,0.5-0.2,0.6c-0.1,0.1-0.3,0.2-0.6,0.2h-2.6c-0.3,0-0.4-0.1-0.6-0.2s-0.2-0.3-0.2-0.5
		c0-0.3,0.1-0.4,0.2-0.5c0.2-0.1,0.5-0.1,0.9-0.1H128.9z"/>
	<path class="st2" d="M141.2,342.1c0.1,0.9,0.4,1.7,1,2.2s1.4,0.8,2.4,0.8c0.8,0,1.6-0.2,2.5-0.6c0.9-0.4,1.4-0.6,1.6-0.6
		c0.2,0,0.4,0.1,0.5,0.2c0.1,0.1,0.2,0.3,0.2,0.5c0,0.2-0.1,0.4-0.2,0.5c-0.1,0.2-0.4,0.3-0.7,0.5c-0.7,0.3-1.3,0.6-2,0.7
		s-1.4,0.3-2.1,0.3c-1.5,0-2.7-0.4-3.6-1.3c-0.9-0.9-1.3-2-1.3-3.4c0-1.4,0.5-2.6,1.4-3.5c0.9-0.9,2.2-1.3,3.7-1.3
		c1.4,0,2.5,0.4,3.4,1.2c0.9,0.8,1.4,1.8,1.4,3c0,0.4-0.1,0.6-0.2,0.7c-0.2,0.1-0.6,0.2-1.2,0.2h-0.1H141.2z M141.3,340.8h6.4
		c-0.1-0.8-0.4-1.4-1-1.9c-0.5-0.5-1.2-0.7-2-0.7c-0.9,0-1.6,0.2-2.2,0.7C141.9,339.3,141.5,340,141.3,340.8z"/>
	<path class="st2" d="M155.9,334.8h-1.7c-0.6,0-1,0-1.2-0.2c-0.2-0.1-0.2-0.3-0.2-0.6c0-0.2,0.1-0.4,0.2-0.5s0.3-0.2,0.6-0.2h3.2
		c0.2,0,0.3,0,0.4,0.1c0.1,0.1,0.1,0.2,0.1,0.3v11h3.1c0.2,0,0.4,0.1,0.5,0.2s0.2,0.3,0.2,0.5c0,0.3-0.1,0.5-0.2,0.6
		c-0.1,0.1-0.3,0.2-0.6,0.2h-7.2c-0.3,0-0.4-0.1-0.6-0.2s-0.2-0.3-0.2-0.5c0-0.2,0.1-0.4,0.2-0.5c0.1-0.1,0.3-0.2,0.6-0.2h2.7V334.8
		z"/>
	<path class="st2" d="M167.9,334.8h-1.7c-0.6,0-1,0-1.2-0.2c-0.2-0.1-0.2-0.3-0.2-0.6c0-0.2,0.1-0.4,0.2-0.5s0.3-0.2,0.6-0.2h3.2
		c0.2,0,0.3,0,0.4,0.1c0.1,0.1,0.1,0.2,0.1,0.3v11h3.1c0.2,0,0.4,0.1,0.5,0.2s0.2,0.3,0.2,0.5c0,0.3-0.1,0.5-0.2,0.6
		c-0.1,0.1-0.3,0.2-0.6,0.2h-7.2c-0.3,0-0.4-0.1-0.6-0.2s-0.2-0.3-0.2-0.5c0-0.2,0.1-0.4,0.2-0.5c0.1-0.1,0.3-0.2,0.6-0.2h2.7V334.8
		z"/>
	<path class="st2" d="M185.7,341.6c0,1.4-0.5,2.5-1.4,3.4c-1,0.9-2.2,1.3-3.7,1.3c-1.5,0-2.7-0.4-3.7-1.3c-1-0.9-1.4-2-1.4-3.4
		c0-1.4,0.5-2.5,1.4-3.4c1-0.9,2.2-1.3,3.7-1.3s2.7,0.4,3.7,1.3C185.2,339.1,185.7,340.3,185.7,341.6z M180.5,345c1,0,1.8-0.3,2.5-1
		s1-1.4,1-2.4c0-1-0.3-1.8-1-2.4s-1.5-1-2.5-1s-1.8,0.3-2.5,1s-1,1.5-1,2.4c0,1,0.3,1.8,1,2.4C178.7,344.7,179.5,345,180.5,345z"/>
	<path class="st2" d="M190.6,344.5c0-0.5,0.2-0.9,0.5-1.2c0.4-0.3,0.8-0.5,1.4-0.5c0.6,0,1,0.2,1.4,0.5c0.4,0.3,0.5,0.7,0.5,1.3
		c0,0.5-0.2,0.9-0.5,1.3c-0.4,0.3-0.8,0.5-1.4,0.5s-1-0.2-1.4-0.5C190.8,345.5,190.6,345.1,190.6,344.5z"/>
	<path class="st2" d="M207.5,337.7L207.5,337.7c0-0.3,0.1-0.4,0.2-0.5c0.1-0.1,0.3-0.2,0.6-0.2c0.3,0,0.5,0.1,0.6,0.2s0.2,0.5,0.2,1
		v1.8c0,0.2-0.1,0.4-0.2,0.5c-0.1,0.1-0.3,0.2-0.6,0.2c-0.2,0-0.3,0-0.5-0.2c-0.1-0.1-0.3-0.3-0.5-0.6c-0.3-0.5-0.7-0.9-1.1-1.2
		c-0.4-0.3-1-0.4-1.5-0.4c-1,0-1.8,0.3-2.5,0.9c-0.6,0.6-1,1.4-1,2.3c0,1,0.3,1.8,0.9,2.4s1.4,0.9,2.3,0.9c0.4,0,0.9-0.1,1.2-0.2
		c0.4-0.1,0.8-0.3,1.1-0.5c0.1-0.1,0.3-0.2,0.5-0.4c0.4-0.3,0.8-0.5,1-0.5c0.2,0,0.4,0.1,0.5,0.2s0.2,0.3,0.2,0.5
		c0,0.5-0.5,1-1.5,1.6s-2,0.8-3.1,0.8c-1.4,0-2.6-0.5-3.5-1.4c-0.9-0.9-1.4-2-1.4-3.4c0-1.4,0.5-2.5,1.4-3.4s2.1-1.4,3.5-1.4
		c0.5,0,1,0.1,1.5,0.2C206.4,337.2,206.9,337.4,207.5,337.7z"/>
	<path class="st2" d="M214,348.6h2.3c0.2,0,0.4,0.1,0.6,0.2s0.2,0.3,0.2,0.5c0,0.3-0.1,0.4-0.2,0.5c-0.1,0.1-0.3,0.2-0.6,0.2H212
		c-0.3,0-0.5-0.1-0.6-0.2s-0.2-0.3-0.2-0.5c0-0.3,0.1-0.4,0.2-0.5c0.2-0.1,0.5-0.2,0.9-0.2h0.2v-10.1h-0.2c-0.4,0-0.8-0.1-0.9-0.2
		c-0.2-0.1-0.2-0.3-0.2-0.5c0-0.2,0.1-0.4,0.2-0.5c0.1-0.1,0.3-0.2,0.6-0.2h1.5c0.2,0,0.3,0,0.4,0.1c0.1,0.1,0.1,0.2,0.1,0.3v0.9
		c0.4-0.5,0.9-0.8,1.5-1c0.5-0.2,1.1-0.3,1.7-0.3c1.3,0,2.4,0.4,3.3,1.3c0.9,0.9,1.3,2,1.3,3.3c0,1.3-0.4,2.3-1.2,3.2
		c-0.8,0.8-1.9,1.2-3.2,1.2c-0.7,0-1.3-0.1-1.9-0.4s-1.1-0.6-1.5-1V348.6z M217.1,344.7c0.9,0,1.6-0.3,2.2-0.9
		c0.6-0.6,0.9-1.3,0.9-2.2c0-0.9-0.3-1.6-0.9-2.2s-1.3-0.9-2.2-0.9s-1.6,0.3-2.2,0.9c-0.6,0.6-0.9,1.3-0.9,2.2
		c0,0.9,0.3,1.6,0.9,2.2C215.4,344.4,216.1,344.7,217.1,344.7z"/>
	<path class="st2" d="M226,348.6h2.3c0.2,0,0.4,0.1,0.6,0.2s0.2,0.3,0.2,0.5c0,0.3-0.1,0.4-0.2,0.5c-0.1,0.1-0.3,0.2-0.6,0.2H224
		c-0.3,0-0.5-0.1-0.6-0.2s-0.2-0.3-0.2-0.5c0-0.3,0.1-0.4,0.2-0.5c0.2-0.1,0.5-0.2,0.9-0.2h0.2v-10.1h-0.2c-0.4,0-0.8-0.1-0.9-0.2
		c-0.2-0.1-0.2-0.3-0.2-0.5c0-0.2,0.1-0.4,0.2-0.5c0.1-0.1,0.3-0.2,0.6-0.2h1.5c0.2,0,0.3,0,0.4,0.1c0.1,0.1,0.1,0.2,0.1,0.3v0.9
		c0.4-0.5,0.9-0.8,1.5-1c0.5-0.2,1.1-0.3,1.7-0.3c1.3,0,2.4,0.4,3.3,1.3c0.9,0.9,1.3,2,1.3,3.3c0,1.3-0.4,2.3-1.2,3.2
		c-0.8,0.8-1.9,1.2-3.2,1.2c-0.7,0-1.3-0.1-1.9-0.4s-1.1-0.6-1.5-1V348.6z M229.1,344.7c0.9,0,1.6-0.3,2.2-0.9
		c0.6-0.6,0.9-1.3,0.9-2.2c0-0.9-0.3-1.6-0.9-2.2s-1.3-0.9-2.2-0.9s-1.6,0.3-2.2,0.9c-0.6,0.6-0.9,1.3-0.9,2.2
		c0,0.9,0.3,1.6,0.9,2.2C227.4,344.4,228.1,344.7,229.1,344.7z"/>
	<path class="st2" d="M60.9,372.5l-0.1,2.3c0,0.3-0.1,0.5-0.2,0.6c-0.1,0.1-0.3,0.2-0.6,0.2c-0.2,0-0.4-0.1-0.5-0.2
		c-0.1-0.1-0.1-0.3-0.1-0.6v-0.2l0.1-2.2c-0.3,0-0.5-0.1-0.8-0.2s-0.5-0.2-0.8-0.4c-0.1,0.2-0.2,0.3-0.3,0.3
		c-0.1,0.1-0.2,0.1-0.4,0.1c-0.3,0-0.5-0.1-0.6-0.3c-0.1-0.2-0.2-0.4-0.2-0.7v-1.4c0-0.2,0.1-0.4,0.2-0.6c0.1-0.1,0.3-0.2,0.6-0.2
		c0.4,0,0.7,0.3,0.8,0.8c0,0.2,0.1,0.3,0.1,0.3c0.1,0.2,0.5,0.5,1,0.7c0.5,0.2,1,0.3,1.6,0.3c0.6,0,1.1-0.1,1.5-0.4
		c0.4-0.3,0.6-0.7,0.6-1.1c0-0.4-0.1-0.7-0.4-1c-0.3-0.3-0.9-0.5-1.8-0.9l-1.7-0.6c-0.7-0.2-1.2-0.6-1.6-1.1s-0.6-1.1-0.6-1.7
		c0-0.8,0.3-1.5,0.9-2c0.6-0.5,1.4-0.8,2.4-0.9l0-0.7c0-0.3,0.1-0.5,0.2-0.6c0.1-0.1,0.3-0.2,0.5-0.2c0.2,0,0.4,0.1,0.5,0.2
		c0.1,0.1,0.2,0.3,0.2,0.5v0.1l-0.1,0.8c0.2,0.1,0.5,0.1,0.7,0.2c0.2,0.1,0.5,0.2,0.7,0.3c0.1-0.1,0.2-0.2,0.3-0.3
		c0.1-0.1,0.2-0.1,0.3-0.1c0.2,0,0.4,0.1,0.5,0.2c0.1,0.1,0.1,0.3,0.1,0.6v1.2c0,0.2-0.1,0.4-0.2,0.6s-0.3,0.2-0.5,0.2
		c-0.3,0-0.6-0.2-0.8-0.6c0-0.1-0.1-0.2-0.1-0.2c-0.1-0.3-0.4-0.5-0.7-0.6c-0.4-0.1-0.8-0.2-1.2-0.2c-0.7,0-1.2,0.1-1.6,0.4
		c-0.4,0.3-0.6,0.7-0.6,1.1c0,0.4,0.1,0.7,0.4,1c0.2,0.3,0.6,0.5,1.1,0.6l1.9,0.6c1,0.3,1.6,0.7,2.1,1.2s0.7,1.1,0.7,1.9
		c0,0.9-0.3,1.5-1,2.1C62.9,372.1,62,372.4,60.9,372.5z"/>
	<path class="st2" d="M82.6,371.5c0-0.5,0.2-0.9,0.5-1.2c0.4-0.3,0.8-0.5,1.4-0.5c0.6,0,1,0.2,1.4,0.5c0.4,0.3,0.5,0.7,0.5,1.3
		c0,0.5-0.2,0.9-0.5,1.3c-0.4,0.3-0.8,0.5-1.4,0.5s-1-0.2-1.4-0.5C82.8,372.5,82.6,372.1,82.6,371.5z"/>
	<path class="st2" d="M94.3,373.4c-0.1,0.3-0.3,0.5-0.4,0.7s-0.3,0.2-0.5,0.2c-0.2,0-0.3-0.1-0.5-0.2c-0.1-0.1-0.2-0.3-0.2-0.5
		c0-0.1,0-0.1,0-0.2s0-0.1,0.1-0.2L99,360c0.2-0.3,0.3-0.6,0.4-0.7c0.1-0.1,0.3-0.2,0.4-0.2c0.2,0,0.4,0.1,0.5,0.2
		c0.1,0.1,0.2,0.3,0.2,0.5c0,0.1,0,0.1,0,0.2c0,0.1,0,0.1-0.1,0.2L94.3,373.4z"/>
	<path class="st2" d="M110.8,371.9c-0.5,0.5-1.1,0.8-1.7,1.1s-1.3,0.4-1.9,0.4c-1,0-1.8-0.3-2.3-0.8c-0.6-0.5-0.9-1.2-0.9-2.1
		c0-1,0.4-1.8,1.2-2.4s1.9-0.8,3.3-0.8c0.4,0,0.8,0,1.1,0.1s0.8,0.1,1.2,0.2v-0.1c0-0.7-0.2-1.3-0.5-1.7c-0.4-0.4-0.9-0.5-1.7-0.5
		c-0.5,0-1.1,0.1-1.7,0.4s-1,0.4-1.2,0.4c-0.2,0-0.3-0.1-0.5-0.2c-0.1-0.2-0.2-0.3-0.2-0.6c0-0.4,0.4-0.7,1.1-1
		c0.7-0.3,1.6-0.4,2.8-0.4c1.1,0,2,0.3,2.6,0.9c0.6,0.6,0.9,1.4,0.9,2.6v4.4h0.5c0.5,0,0.8,0,0.9,0.1s0.2,0.3,0.2,0.5
		c0,0.2-0.1,0.4-0.2,0.5s-0.3,0.2-0.6,0.2h-1.5c-0.2,0-0.3-0.1-0.4-0.2c-0.1-0.1-0.2-0.3-0.2-0.5L110.8,371.9z M110.7,368.8
		c-0.4-0.1-0.7-0.2-1-0.3c-0.3-0.1-0.7-0.1-1-0.1c-1,0-1.8,0.2-2.4,0.5c-0.6,0.3-0.9,0.8-0.9,1.4c0,0.4,0.2,0.8,0.5,1.1
		c0.4,0.3,0.8,0.4,1.4,0.4c0.8,0,1.6-0.2,2.3-0.6c0.7-0.4,1.1-0.9,1.1-1.4V368.8z"/>
	<path class="st2" d="M118.6,371.5c0-0.5,0.2-0.9,0.5-1.2c0.4-0.3,0.8-0.5,1.4-0.5c0.6,0,1,0.2,1.4,0.5c0.4,0.3,0.5,0.7,0.5,1.3
		c0,0.5-0.2,0.9-0.5,1.3c-0.4,0.3-0.8,0.5-1.4,0.5s-1-0.2-1.4-0.5C118.8,372.5,118.6,372.1,118.6,371.5z"/>
	<path class="st2" d="M137.7,368.6c0,1.4-0.5,2.5-1.4,3.4c-1,0.9-2.2,1.3-3.7,1.3c-1.5,0-2.7-0.4-3.7-1.3c-1-0.9-1.4-2-1.4-3.4
		c0-1.4,0.5-2.5,1.4-3.4c1-0.9,2.2-1.3,3.7-1.3s2.7,0.4,3.7,1.3C137.2,366.1,137.7,367.3,137.7,368.6z M132.5,372c1,0,1.8-0.3,2.5-1
		s1-1.4,1-2.4c0-1-0.3-1.8-1-2.4s-1.5-1-2.5-1s-1.8,0.3-2.5,1s-1,1.5-1,2.4c0,1,0.3,1.8,1,2.4C130.7,371.7,131.5,372,132.5,372z"/>
	<path class="st2" d="M142.1,369.5c0,0.8,0.2,1.4,0.5,1.8c0.3,0.4,0.9,0.6,1.6,0.6c0.7,0,1.3-0.2,1.8-0.7c0.5-0.4,0.8-1,0.8-1.7v-4
		h-1.3c-0.3,0-0.4-0.1-0.6-0.2c-0.1-0.1-0.2-0.3-0.2-0.5c0-0.2,0.1-0.4,0.2-0.5s0.3-0.2,0.6-0.2h2.1c0.2,0,0.4,0.1,0.5,0.2
		s0.2,0.4,0.2,0.8v6.7h0.4c0.3,0,0.5,0.1,0.7,0.2c0.1,0.1,0.2,0.3,0.2,0.5c0,0.2-0.1,0.4-0.2,0.5s-0.3,0.2-0.6,0.2h-1.5
		c-0.2,0-0.3,0-0.4-0.1c-0.1-0.1-0.1-0.2-0.1-0.3v-0.7c-0.6,0.5-1.2,0.8-1.6,1c-0.4,0.2-0.9,0.3-1.4,0.3c-1.1,0-1.9-0.3-2.4-0.9
		s-0.8-1.4-0.8-2.6v-4.4h-0.2c-0.4,0-0.7-0.1-0.9-0.2s-0.2-0.3-0.2-0.5c0-0.2,0.1-0.4,0.2-0.5s0.3-0.2,0.6-0.2h1.5
		c0.2,0,0.4,0,0.5,0.1c0.1,0.1,0.1,0.3,0.1,0.6V369.5z"/>
	<path class="st2" d="M159.2,364.7c0.3,0,0.6,0.1,0.7,0.2c0.1,0.1,0.2,0.3,0.2,0.5c0,0.2-0.1,0.4-0.2,0.5c-0.1,0.1-0.3,0.2-0.6,0.2
		h-4v3.3c0,1.1,0.1,1.8,0.4,2.1c0.3,0.3,0.8,0.5,1.4,0.5c0.6,0,1.3-0.2,2.1-0.5c0.8-0.3,1.3-0.5,1.5-0.5c0.2,0,0.3,0.1,0.5,0.2
		c0.1,0.1,0.2,0.3,0.2,0.5c0,0.2-0.1,0.4-0.2,0.6c-0.2,0.2-0.4,0.3-0.8,0.5c-0.6,0.3-1.2,0.4-1.7,0.6s-1,0.2-1.4,0.2
		c-0.8,0-1.4-0.1-1.9-0.4s-0.9-0.6-1.2-1.1c-0.1-0.2-0.2-0.5-0.3-0.8s-0.1-0.8-0.1-1.4v-0.3V366h-1.7c-0.3,0-0.5-0.1-0.6-0.2
		s-0.2-0.3-0.2-0.5c0-0.3,0.1-0.4,0.3-0.5s0.5-0.1,1.1-0.1h1.1v-2v-0.5c0-0.3,0.1-0.5,0.2-0.6c0.1-0.1,0.3-0.2,0.6-0.2
		c0.3,0,0.5,0.1,0.6,0.2c0.1,0.2,0.2,0.5,0.2,1.1v2H159.2z"/>
</g>
</svg>
